<mxfile host="app.diagrams.net" modified="2023-05-10T01:49:56.696Z" agent="Mozilla/5.0 (Macintosh; Intel Mac OS X 10_15_7) AppleWebKit/537.36 (KHTML, like Gecko) Chrome/108.0.0.0 Safari/537.36" version="21.2.1" etag="4pUSWumR7TSHPcSh95kv" type="github">
  <diagram name="Page-1" id="oNqKIh0fXcghokqTHcZ3">
    <mxGraphModel>
      <root>
        <mxCell id="0" />
        <mxCell id="1" parent="0" />
      </root>
    </mxGraphModel>
  </diagram>
</mxfile>
